<svg width="44" height="44" viewBox="0 0 44 44" fill="none" xmlns="http://www.w3.org/2000/svg">
<circle cx="22" cy="22" r="21.5" fill="white" stroke="#BDBDBD"/>
<path d="M31.1722 15.4483H12.9653C12.5082 15.4483 12.1377 15.8188 12.1377 16.2759V29.5172C12.1377 29.9743 12.5082 30.3448 12.9653 30.3448H31.1722C31.6292 30.3448 31.9998 29.9743 31.9998 29.5172V16.2759C31.9998 15.8188 31.6292 15.4483 31.1722 15.4483Z" stroke="#828282" stroke-linecap="round" stroke-linejoin="round"/>
<path d="M26.2065 15.4483V13.7931C26.2065 13.3541 26.0321 12.9331 25.7217 12.6227C25.4113 12.3123 24.9903 12.1379 24.5514 12.1379H19.5858C19.1469 12.1379 18.7259 12.3123 18.4155 12.6227C18.105 12.9331 17.9307 13.3541 17.9307 13.7931V15.4483" stroke="#828282" stroke-linecap="round" stroke-linejoin="round"/>
<path d="M31.9998 21.0655C28.9814 22.8111 25.5555 23.7283 22.0687 23.7241C18.5813 23.7332 15.1541 22.8157 12.1377 21.0655" stroke="#828282" stroke-linecap="round" stroke-linejoin="round"/>
<path d="M20.8276 20.4138H23.3104" stroke="#828282" stroke-linecap="round" stroke-linejoin="round"/>
</svg>
