<svg width="17" height="17" viewBox="0 0 17 17" fill="none" xmlns="http://www.w3.org/2000/svg">
<path d="M11.1407 10.2395C11.231 10.1794 11.3349 10.1428 11.443 10.133C11.551 10.1232 11.6598 10.1405 11.7595 10.1833L15.6041 11.9059C15.7337 11.9613 15.8418 12.0571 15.9124 12.1791C15.9829 12.3011 16.0121 12.4426 15.9954 12.5825C15.8688 13.5291 15.4027 14.3974 14.6838 15.026C13.9649 15.6546 13.0422 16.0007 12.0872 16C9.1467 16 6.32662 14.8319 4.24737 12.7526C2.16811 10.6734 1 7.8533 1 4.91279C0.999271 3.95783 1.3454 3.0351 1.97401 2.31621C2.60263 1.59733 3.47094 1.13121 4.41747 1.00455C4.55739 0.987932 4.69893 1.01707 4.82091 1.08761C4.94289 1.15815 5.03874 1.2663 5.09411 1.39587L6.81671 5.24378C6.85903 5.34261 6.87627 5.45037 6.86688 5.55747C6.85749 5.66457 6.82177 5.76769 6.7629 5.85765L5.02074 7.92917C4.95895 8.02241 4.9224 8.1301 4.91469 8.2417C4.90697 8.3533 4.92834 8.465 4.97672 8.56586C5.65092 9.94606 7.07758 11.3556 8.46185 12.0233C8.56325 12.0714 8.67546 12.0923 8.7874 12.0839C8.89934 12.0755 9.00715 12.038 9.10018 11.9752L11.1407 10.2395Z" stroke="#AF862E" stroke-linecap="round" stroke-linejoin="round"/>
</svg>
