<svg width="21" height="21" viewBox="0 0 21 21" fill="none" xmlns="http://www.w3.org/2000/svg">
<path d="M19.4167 4.16667H2" stroke="#232020" stroke-linecap="round" stroke-linejoin="round"/>
<path d="M8.33398 8.91667V15.25" stroke="#232020" stroke-linecap="round" stroke-linejoin="round"/>
<path d="M13.084 8.91667V15.25" stroke="#232020" stroke-linecap="round" stroke-linejoin="round"/>
<path d="M17.834 4.16667V19.2083C17.834 19.4183 17.7506 19.6197 17.6021 19.7681C17.4536 19.9166 17.2523 20 17.0423 20H4.37565C4.16569 20 3.96432 19.9166 3.81586 19.7681C3.66739 19.6197 3.58398 19.4183 3.58398 19.2083V4.16667" stroke="#232020" stroke-linecap="round" stroke-linejoin="round"/>
<path d="M14.6667 4.16667V2.58333C14.6667 2.16341 14.4999 1.76068 14.2029 1.46375C13.906 1.16681 13.5033 1 13.0833 1H8.33333C7.91341 1 7.51068 1.16681 7.21375 1.46375C6.91682 1.76068 6.75 2.16341 6.75 2.58333V4.16667" stroke="#232020" stroke-linecap="round" stroke-linejoin="round"/>
</svg>
