<svg width="20" height="20" viewBox="0 0 20 20" fill="none" xmlns="http://www.w3.org/2000/svg">
<path d="M19.5312 4.93782L15.0632 0.468764C14.9146 0.32015 14.7382 0.20226 14.5441 0.121829C14.3499 0.0413978 14.1418 0 13.9317 0C13.7215 0 13.5134 0.0413978 13.3193 0.121829C13.1251 0.20226 12.9487 0.32015 12.8002 0.468764L0.469013 12.8009C0.319791 12.9489 0.201484 13.1252 0.120969 13.3193C0.0404533 13.5135 -0.000663447 13.7217 8.09504e-06 13.9319V18.401C8.09504e-06 18.8253 0.168581 19.2323 0.468643 19.5324C0.768704 19.8324 1.17568 20.001 1.60003 20.001H6.06908C6.27927 20.0017 6.4875 19.9605 6.68167 19.88C6.87583 19.7995 7.05205 19.6812 7.20009 19.532L19.5312 7.20084C19.6798 7.05226 19.7977 6.87586 19.8782 6.68172C19.9586 6.48757 20 6.27948 20 6.06933C20 5.85918 19.9586 5.65109 19.8782 5.45694C19.7977 5.2628 19.6798 5.0864 19.5312 4.93782ZM6.06908 18.401H1.60003V13.9319L10.4001 5.13182L14.8692 9.60087L6.06908 18.401ZM16.0002 8.46886L11.5311 4.00081L13.9312 1.60078L18.4002 6.06883L16.0002 8.46886Z" fill="white"/>
</svg>
