<svg width="28" height="28" viewBox="0 0 28 28" fill="none" xmlns="http://www.w3.org/2000/svg">
<path d="M5.25 4.375L22.75 23.625" stroke="#828282" stroke-width="2" stroke-linecap="round" stroke-linejoin="round"/>
<path d="M16.9437 17.2375C16.0851 18.0181 14.9515 18.4257 13.7924 18.3705C12.6333 18.3153 11.5435 17.802 10.7629 16.9433C9.98232 16.0847 9.57478 14.9511 9.62995 13.792C9.68513 12.6329 10.1985 11.5431 11.0571 10.7625" stroke="#828282" stroke-width="2" stroke-linecap="round" stroke-linejoin="round"/>
<path d="M14.8242 9.70276C15.7543 9.88088 16.6016 10.356 17.2386 11.0567C17.8756 11.7575 18.2681 12.646 18.357 13.5889" stroke="#828282" stroke-width="2" stroke-linecap="round" stroke-linejoin="round"/>
<path d="M22.813 18.4953C25.1973 16.3603 26.2462 14 26.2462 14C26.2462 14 22.7463 6.12501 13.9963 6.12501C13.2385 6.12398 12.482 6.18544 11.7344 6.30876" stroke="#828282" stroke-width="2" stroke-linecap="round" stroke-linejoin="round"/>
<path d="M8.09375 7.50308C3.63453 9.76058 1.75 14 1.75 14C1.75 14 5.25 21.875 14 21.875C16.0502 21.891 18.0748 21.4186 19.9062 20.4968" stroke="#828282" stroke-width="2" stroke-linecap="round" stroke-linejoin="round"/>
</svg>
