<svg width="44" height="44" viewBox="0 0 44 44" fill="none" xmlns="http://www.w3.org/2000/svg">
<circle cx="22" cy="22" r="21.5" fill="white" stroke="#BDBDBD"/>
<path d="M31.1561 20.6376C32.8253 20.6376 34.1785 19.2845 34.1785 17.6153C34.1785 15.9461 32.8253 14.5929 31.1561 14.5929C29.4869 14.5929 28.1338 15.9461 28.1338 17.6153C28.1338 19.2845 29.4869 20.6376 31.1561 20.6376Z" stroke="#828282" stroke-linecap="round" stroke-linejoin="round"/>
<path d="M14.3176 31H10.8635C10.6345 31 10.4149 30.909 10.2529 30.7471C10.091 30.5851 10 30.3655 10 30.1365V25.8188C10 25.5898 10.091 25.3702 10.2529 25.2082C10.4149 25.0463 10.6345 24.9553 10.8635 24.9553H14.3176" stroke="#828282" stroke-linecap="round" stroke-linejoin="round"/>
<path d="M21.2261 25.8188H24.6802L31.9123 24.1554C32.1782 24.0826 32.4573 24.072 32.7279 24.1246C32.9986 24.1771 33.2534 24.2914 33.4727 24.4585C33.692 24.6255 33.8698 24.8409 33.9923 25.0879C34.1148 25.3349 34.1787 25.6068 34.1791 25.8825C34.1792 26.2154 34.0865 26.5417 33.9115 26.8248C33.7365 27.108 33.486 27.3367 33.1882 27.4854L28.9979 29.2729L22.0896 31H14.3179V24.9553L17.0164 22.2568C17.2576 22.0164 17.5438 21.8259 17.8587 21.6963C18.1735 21.5666 18.5109 21.5003 18.8514 21.5012H24.2485C24.821 21.5012 25.3701 21.7286 25.775 22.1335C26.1798 22.5383 26.4073 23.0874 26.4073 23.66C26.4073 24.2325 26.1798 24.7817 25.775 25.1865C25.3701 25.5914 24.821 25.8188 24.2485 25.8188H21.2261Z" stroke="#828282" stroke-linecap="round" stroke-linejoin="round"/>
<path d="M28.1334 17.7545C27.5468 18.032 26.8865 18.1132 26.2501 17.9863C25.6138 17.8595 25.0352 17.5311 24.5999 17.0499C24.1645 16.5687 23.8957 15.9602 23.833 15.3143C23.7703 14.6685 23.9171 14.0196 24.2518 13.4636C24.5864 12.9077 25.0911 12.4742 25.6912 12.2273C26.2913 11.9804 26.9549 11.9332 27.5839 12.0927C28.2129 12.2521 28.7739 12.6098 29.1838 13.1127C29.5938 13.6157 29.8311 14.2372 29.8605 14.8855" stroke="#828282" stroke-linecap="round" stroke-linejoin="round"/>
</svg>
