<svg width="21" height="19" viewBox="0 0 21 19" fill="none" xmlns="http://www.w3.org/2000/svg">
<path d="M1 2.65217V15.8696C1 16.3077 1.17407 16.728 1.48391 17.0378C1.79375 17.3477 2.21399 17.5217 2.65217 17.5217H19.1739C19.393 17.5217 19.6031 17.4347 19.758 17.2798C19.913 17.1249 20 16.9147 20 16.6957V5.13043C20 4.91134 19.913 4.70122 19.758 4.5463C19.6031 4.39138 19.393 4.30435 19.1739 4.30435H2.65217C2.21399 4.30435 1.79375 4.13028 1.48391 3.82044C1.17407 3.51059 1 3.09036 1 2.65217ZM1 2.65217C1 2.21399 1.17407 1.79375 1.48391 1.48391C1.79375 1.17407 2.21399 1 2.65217 1H16.6957" stroke="#828282" stroke-width="2" stroke-linecap="round" stroke-linejoin="round"/>
<path d="M15.4559 11.7391C16.1403 11.7391 16.6951 11.1844 16.6951 10.5C16.6951 9.81565 16.1403 9.26087 15.4559 9.26087C14.7716 9.26087 14.2168 9.81565 14.2168 10.5C14.2168 11.1844 14.7716 11.7391 15.4559 11.7391Z" fill="#828282"/>
</svg>
