<svg width="944" height="789" viewBox="0 0 944 789" fill="none" xmlns="http://www.w3.org/2000/svg">
<path d="M853.969 394.473C844.986 920.472 62.5674 920.389 53.6621 394.447C62.6448 -131.527 845.062 -131.447 853.969 394.473Z" fill="white"/>
<path d="M938.649 714.335C933.141 708.956 -1.1722 724.696 0.00113702 708.865C-1.18953 692.935 933.152 708.797 938.66 703.356C945.493 703.264 945.958 714.44 938.649 714.335Z" fill="#2E0F07"/>
<path d="M429.558 134.78C407.01 115.754 367.158 171.473 361.542 123.673C360.075 112.74 358.475 102.18 349.309 94.8869C329.057 78.8336 301.322 90.1135 285.338 106.86C276.755 115.06 268.811 126.714 256.926 130.287C243.325 134.38 232.889 122.247 222.633 115.5C147.985 70.4468 108.331 182.34 223.646 220.22C249.497 260.047 484.431 192.914 429.558 134.78Z" fill="#E3BB65"/>
<path d="M392.174 182.94C373.453 180.58 360.065 195.674 340.429 184.954C330.858 179.74 323.397 170.514 312.869 167.687C292.505 162.22 284.91 186.5 265.342 184.874C248.903 183.5 237.965 166.767 220.254 169.34C203.178 171.834 207.247 198.247 183.977 199.98C196.429 208.54 209.829 214.594 223.647 220.22C251.338 252.927 373.687 213.287 405.126 191.714C402.695 186.127 397.769 183.66 392.174 182.94Z" fill="#AF862E"/>
<path d="M224.806 214.86C248.742 242.114 338.323 216.46 369.01 203.554C391.154 192.754 451.332 170.794 426.115 139.047C407.919 125.42 376.662 166.86 360.779 140.14C353.435 127.047 357.662 107.434 345.896 99.1803C327.227 85.8736 306.524 93.9136 289.126 110.82C279.872 119.767 272 131.407 258.506 135.54C232.188 142.234 216.792 106.314 187.35 110.154C163.626 113.02 154.727 132.794 156.856 153.167C158.515 179.38 194.32 203.82 224.806 214.86ZM258.651 237.714C245.234 238.14 228.366 235.287 220.308 224.86C170.947 207.754 122.727 161.42 156.26 115.247C173.846 93.4203 202.626 95.6069 225.646 110.927C234.738 116.754 244.86 128.34 255.348 125.034C265.699 121.887 273.451 110.54 281.551 102.9C302.582 82.0602 329.915 73.7402 352.723 90.5935C363.82 99.4202 365.499 111.914 366.979 122.94C370.918 163.14 407.17 107.914 433.004 130.514C488.832 194.714 301.183 241.847 258.651 237.714Z" fill="#2E0F07"/>
<path d="M440.979 703.408H137.909C91.6795 703.408 54.6702 665.1 56.2368 618.887C48.6035 506.66 145.214 320.913 207.589 274.607H368.835C400.311 303.407 463.678 369.167 498.749 474.967C523.877 562.9 557.165 692.63 440.979 703.408Z" fill="#E3BB65"/>
<path d="M355.514 446.537L347.711 473.158H199L206.803 446.537H355.514ZM285.748 626L201.754 523.187L201.295 503.91H243.062C253.925 503.91 263.181 502.38 270.831 499.32C278.481 496.184 284.333 491.518 288.387 485.321C292.442 479.048 294.469 471.169 294.469 461.684C294.469 447.685 290.261 436.707 281.847 428.751C273.432 420.719 260.504 416.703 243.062 416.703H199L206.803 391H243.062C261.728 391 277.027 394.098 288.961 400.294C300.971 406.414 309.845 414.829 315.582 425.539C321.396 436.172 324.303 448.22 324.303 461.684C324.303 473.847 321.625 485.054 316.27 495.304C310.992 505.478 302.501 513.664 290.797 519.86C279.169 526.056 263.793 529.154 244.669 529.154H243.98L321.549 624.164V626H285.748ZM355.514 391L347.711 417.621L230.67 416.703L238.473 391H355.514Z" fill="white"/>
<path d="M154.919 495.62C137.991 565.54 81.2061 552.42 96.6355 482.167C113.563 412.247 170.349 425.353 154.919 495.62Z" fill="#FFF8F7"/>
<path d="M171.985 335.127C185.883 329.02 193.402 313.113 207.117 306.847C247.159 291.94 251.639 358.913 294.521 334.26C303.946 327.407 307.374 311.98 317.657 305.127C326.642 298.647 352.246 298.367 355.359 311.98C358.787 311.98 361.358 315.42 362.214 317.127C377.602 335.94 399.054 335.407 418.503 327.66C399.394 303.833 381.523 286.22 368.835 274.607H207.589C194.171 287.78 176.106 306.993 157.107 332.367C160.126 335.38 167.162 337.193 171.985 335.127Z" fill="#AF862E"/>
<path d="M482.18 598.193C393.696 709.06 206.136 684.812 79.5723 678.904C94.3789 694.006 115.011 703.408 137.91 703.408H440.98C531.119 700.223 530.052 607.474 514.811 537.514C506.728 558.66 495.827 579.033 482.18 598.193Z" fill="#AF862E"/>
<path d="M209.841 280.087C140.993 338.3 57.917 501.367 61.7263 619.087C61.0117 639.94 68.6063 659.673 83.1063 674.673C97.597 689.669 117.06 697.925 137.91 697.925H440.981C482.18 698.773 518.325 662.287 517.214 621.1C524.961 501.407 439.194 336.273 366.7 280.087H209.841ZM440.981 708.892H137.91C114.06 708.892 91.7957 699.448 75.2197 682.301C58.6357 665.14 49.949 642.553 50.7583 618.713C46.6157 497.9 133.248 329.287 203.756 270.7C204.773 269.687 206.153 269.127 207.59 269.127H368.837C447.362 323.033 535.356 497.207 528.177 621.047C529.433 668.14 488.117 709.876 440.981 708.892Z" fill="#2E0F07"/>
<path d="M364.039 280.06H207.354C186.161 279.98 186.077 247.673 207.355 247.58C207.354 247.58 364.039 247.58 364.039 247.58C385.231 247.66 385.315 279.967 364.039 280.06Z" fill="#AF862E"/>
<path d="M207.353 253.06C193.444 252.873 193.365 274.78 207.354 274.58C207.353 274.58 364.038 274.58 364.038 274.58C377.946 274.767 378.025 252.873 364.037 253.06C364.038 253.06 207.353 253.06 207.353 253.06ZM364.038 285.54H207.353C178.848 285.047 178.766 242.607 207.353 242.1H364.038C376.017 242.1 385.764 251.847 385.764 263.82C385.764 275.807 376.017 285.54 364.038 285.54Z" fill="#2E0F07"/>
<path d="M364.039 241.847H207.354C186.161 241.767 186.077 209.46 207.355 209.367C207.354 209.367 364.039 209.367 364.039 209.367C385.231 209.447 385.315 241.754 364.039 241.847Z" fill="#AF862E"/>
<path d="M207.353 214.847C193.444 214.66 193.365 236.553 207.354 236.367C207.353 236.367 364.038 236.367 364.038 236.367C377.946 236.553 378.025 214.647 364.037 214.847C364.038 214.847 207.353 214.847 207.353 214.847ZM364.038 247.327H207.353C178.848 246.833 178.766 204.393 207.353 203.873H364.038C376.017 203.873 385.764 213.62 385.764 225.607C385.764 237.58 376.017 247.327 364.038 247.327Z" fill="#2E0F07"/>
<path d="M187.95 141.674C178.139 164.86 156.679 155.874 166.313 132.607C176.122 109.42 197.583 118.407 187.95 141.674Z" fill="#FFF8F7"/>
<path d="M816.492 708.919H392.614C361.019 707.488 355.434 680.983 357.668 654.514H851.439C853.76 680.782 847.912 707.67 816.492 708.919Z" fill="#CBDBED"/>
<path d="M816.492 693.398H392.613C373.313 693.398 357.666 677.752 357.666 658.447C355.022 683.458 363.942 708.102 392.614 708.919C392.613 708.919 816.492 708.919 816.492 708.919C844.925 708.202 854.217 683.415 851.439 658.447C851.439 677.752 835.793 693.398 816.492 693.398Z" fill="#9FBDDD"/>
<path d="M363.15 660.007C360.856 681.097 368.089 702.877 392.614 703.435C392.613 703.435 816.492 703.435 816.492 703.435C840.978 702.783 848.284 681.281 845.954 660.007H363.15ZM816.492 714.403H392.613C370.32 714.403 352.184 696.265 352.184 673.967V654.514C352.184 651.487 354.638 649.033 357.668 649.033H851.438C854.468 649.033 856.922 651.487 856.922 654.514C859.801 684.099 850.858 713.123 816.492 714.403Z" fill="#2E0F07"/>
<path d="M778.091 654.913C329.09 635.953 391.591 751.396 388.81 391.353C388.806 368.033 407.704 349.14 431.016 349.14C880.016 368.1 817.516 252.66 820.298 612.7C820.302 636.02 801.403 654.913 778.091 654.913Z" fill="white"/>
<path d="M807.159 360.754C808.563 364.527 809.334 368.607 809.334 372.86V609.247C809.334 628.407 793.802 643.94 774.642 643.94H412.531C408.272 643.94 404.195 643.18 400.426 641.767C408.115 649.86 418.972 654.914 431.015 654.914H778.091C801.403 654.914 820.3 636.02 820.3 612.7V391.34C820.3 379.3 815.248 368.447 807.159 360.754Z" fill="#9FBDDD"/>
<path d="M431.017 354.62C410.765 354.62 394.29 371.1 394.29 391.34C399.824 743.483 324.482 631.1 778.094 649.434C798.342 649.434 814.818 632.954 814.818 612.7C809.285 260.567 884.625 372.954 431.017 354.62ZM778.092 660.394C332.642 641.1 383.776 758.486 383.326 391.354C383.322 365.047 404.718 343.647 431.017 343.647C876.465 362.954 825.333 245.567 825.781 612.7C825.785 639.007 804.39 660.394 778.092 660.394Z" fill="#2E0F07"/>
<path d="M429.039 398.647C429.039 392.54 433.985 387.593 440.085 387.593H795.707C793.401 379.873 786.245 374.233 777.767 374.233H432.775C422.434 374.233 414.053 382.62 414.053 392.953V608.833C414.053 617.887 420.489 625.447 429.039 627.18V398.647Z" fill="#78CDF0"/>
<path d="M432.774 379.714C425.474 379.714 419.535 385.66 419.535 392.954V608.833C419.535 616.127 425.474 622.073 432.774 622.073H777.767C785.067 622.073 791.006 616.127 791.006 608.833V392.954C791.006 385.66 785.067 379.714 777.767 379.714H432.774ZM777.767 633.033H432.774C419.427 633.033 408.568 622.18 408.568 608.833V392.954C408.568 379.607 419.427 368.754 432.774 368.754H777.767C791.115 368.754 801.974 379.607 801.974 392.954V608.833C801.974 622.18 791.115 633.033 777.767 633.033Z" fill="#2E0F07"/>
<path d="M679.321 673.713H529.788C519.353 673.86 516.309 663.14 517.46 654.513H691.649C692.79 663.14 689.765 673.86 679.321 673.713Z" fill="#8BAFD6"/>
<path d="M522.941 660.007C522.44 664.22 525.37 668.26 529.786 668.22H679.32C683.712 668.26 686.689 664.207 686.164 660.007H522.941ZM679.32 679.195H529.786C516.505 679.344 510.245 666.327 511.976 654.514C511.974 651.487 514.429 649.033 517.458 649.033H691.648C698.13 648.927 697.204 657.047 697.132 661.38C697.132 671.207 689.141 679.195 679.32 679.195Z" fill="#2E0F07"/>
<path d="M438.296 646.82H289.184V616.314H438.296V646.82Z" fill="#FAD100"/>
<path d="M365.774 616.314H289.184V646.82H331.885C345.054 638.434 356.948 628.1 365.774 616.314Z" fill="#F9F296"/>
<path d="M365.774 616.314C356.95 628.1 345.051 638.434 331.885 646.82H389.671C399.57 637.74 408.398 627.5 415.855 616.314H365.774Z" fill="#F6EB3A"/>
<path d="M294.666 641.34H432.81V621.807H294.666V641.34ZM438.294 652.3H289.182C286.153 652.3 283.698 649.847 283.698 646.82V616.314C277.118 604.06 436.384 613.754 438.294 610.834C441.324 610.834 443.778 613.287 443.778 616.314V646.82C443.778 649.847 441.324 652.3 438.294 652.3Z" fill="#2E0F07"/>
<path d="M438.296 677.328H289.184V646.833H438.296V677.328Z" fill="#FAD100"/>
<path d="M365.774 646.833H289.184V677.328H331.885C345.054 668.94 356.948 658.607 365.774 646.833Z" fill="#F9F296"/>
<path d="M365.774 646.833C356.95 658.607 345.051 668.953 331.885 677.328H389.671C399.57 668.247 408.398 658.007 415.855 646.833H365.774Z" fill="#F6EB3A"/>
<path d="M294.666 671.847H432.81V652.313H294.666V671.847ZM438.294 682.812H289.182C286.153 682.812 283.698 680.357 283.698 677.328V646.833C277.118 634.567 436.384 644.26 438.294 641.34C441.324 641.34 443.778 643.793 443.778 646.833V677.328C443.778 680.357 441.324 682.812 438.294 682.812Z" fill="#2E0F07"/>
<path d="M415.413 707.839H266.301V677.338H415.413V707.839Z" fill="#FAD100"/>
<path d="M342.891 677.338H266.301V707.839H309.003C322.171 699.456 334.065 689.12 342.891 677.338Z" fill="#F9F296"/>
<path d="M342.89 677.338C334.066 689.119 322.167 699.459 309.002 707.839H366.787C376.686 698.759 385.514 688.52 392.971 677.338H342.89Z" fill="#AF862E"/>
<path d="M271.784 702.355H409.929V682.821H271.784V702.355ZM415.412 713.321H266.3C263.27 713.321 260.816 710.867 260.816 707.839V677.337C254.236 665.087 413.502 674.772 415.412 671.847C418.441 671.86 420.896 674.313 420.896 677.337V707.839C420.896 710.867 418.441 713.321 415.412 713.321Z" fill="#2E0F07"/>
<path d="M271.274 592.233L170.029 701.703L147.637 680.994L248.882 571.527L271.274 592.233Z" fill="#7F5D14"/>
<path d="M199.641 624.767L147.637 680.994L170.029 701.703L199.023 670.354C201.811 654.994 202.298 639.247 199.641 624.767Z" fill="#F9F296"/>
<path d="M199.641 624.767C202.298 639.247 201.811 654.994 199.023 670.354L238.258 627.927C238.314 614.5 236.79 601.06 233.645 587.993L199.641 624.767Z" fill="#AF862E"/>
<path d="M155.386 680.691L169.725 693.953L263.524 592.527L249.184 579.273L155.386 680.691ZM170.028 707.187C167.293 708.721 146.105 686.216 143.912 685.02C141.689 682.963 141.554 679.493 143.61 677.269L244.854 567.793C246.809 565.607 250.486 565.447 252.604 567.5L274.996 588.207C277.22 590.26 277.354 593.727 275.298 595.953L174.054 705.427C173.02 706.547 171.553 707.188 170.028 707.187Z" fill="#2E0F07"/>
<path d="M313.65 572.074L247.674 705.795L220.32 692.3L286.298 558.58L313.65 572.074Z" fill="#7F5D14"/>
<path d="M254.21 623.62L220.32 692.3L247.674 705.795L266.567 667.5C264.878 651.98 260.871 636.74 254.21 623.62Z" fill="#F9F296"/>
<path d="M254.209 623.62C260.869 636.74 264.877 651.98 266.566 667.5L292.134 615.673C288.372 602.78 283.096 590.34 276.368 578.7L254.209 623.62Z" fill="#AF862E"/>
<path d="M227.663 689.808L245.181 698.451L306.305 574.567L288.789 565.927L227.663 689.808ZM247.671 711.279C248.019 713.001 218.517 697.065 217.894 697.219C203.997 697.66 283.146 559.18 281.375 556.153C282.719 553.433 286.009 552.327 288.723 553.66C291.014 555.327 319.081 566.953 318.842 570.313C319.31 571.687 319.21 573.193 318.567 574.5L252.59 708.221C251.698 710.071 249.721 711.296 247.671 711.279Z" fill="#2E0F07"/>
<path d="M512.59 614.22C510.538 733.957 330.36 733.939 328.326 614.22C330.377 494.5 510.555 494.513 512.59 614.22Z" fill="#AF862E"/>
<path d="M488.338 552.647C470.389 612.167 422.482 659.567 365.717 687.491C454.095 751.642 562.582 633.754 488.338 552.647Z" fill="#7F5D14"/>
<path d="M479.06 614.256C477.747 690.89 362.432 690.878 361.131 614.256C362.444 537.642 477.759 537.642 479.06 614.256Z" fill="#FAF495"/>
<path d="M420.458 559.433C347.574 560.74 347.585 667.727 420.459 669.02C493.341 667.713 493.33 560.727 420.458 559.433ZM420.458 676.035C338.349 674.567 338.361 553.873 420.461 552.42C502.566 553.887 502.554 674.58 420.458 676.035Z" fill="#2E0F07"/>
<path d="M391.603 567.154C391.101 596.487 346.966 596.487 346.469 567.154C346.971 537.834 391.105 537.834 391.603 567.154Z" fill="#FDFAD0"/>
<path d="M443.143 596.054L440.849 603.88H397.131L399.425 596.054H443.143ZM422.633 648.812L397.94 618.587L397.806 612.92H410.084C413.278 612.92 415.999 612.47 418.248 611.571C420.497 610.649 422.217 609.277 423.409 607.456C424.601 605.611 425.197 603.295 425.197 600.507C425.197 596.391 423.96 593.164 421.486 590.825C419.012 588.464 415.212 587.283 410.084 587.283H397.131L399.425 579.727H410.084C415.572 579.727 420.069 580.638 423.577 582.459C427.108 584.259 429.717 586.732 431.404 589.881C433.113 593.007 433.967 596.549 433.967 600.507C433.967 604.082 433.18 607.377 431.606 610.39C430.054 613.381 427.558 615.788 424.117 617.609C420.699 619.431 416.179 620.342 410.557 620.342H410.354L433.158 648.272V648.812H422.633ZM443.143 579.727L440.849 587.553L406.441 587.283L408.735 579.727H443.143Z" fill="#2E0F07"/>
<path d="M420.458 528.62C306.576 530.66 306.594 697.816 420.46 699.833C534.338 697.8 534.32 530.633 420.458 528.62ZM420.458 710.801C292.163 708.508 292.182 519.927 420.462 517.66C548.752 519.94 548.732 708.527 420.458 710.801Z" fill="#2E0F07"/>
<path d="M803.63 129.794L751.192 139.78C739.257 143.807 747.916 154.834 753.656 160.794L623.578 261.967L546.462 181.447C540.368 177.554 532.412 178.3 527.144 183.247L436.506 268.394C425.97 277.607 433.574 296.234 447.333 295.727C452.544 302.274 535.03 217.167 539.833 214.7C658.189 334.273 587.392 318.18 773.898 185.1C778.982 191.62 789.31 205.954 796.04 193.354C796.038 193.354 814.3 142.327 814.3 142.327C816.604 135.887 810.33 128.514 803.63 129.794Z" fill="#ACD350"/>
<path d="M788.185 144.034C788.345 154.9 771.087 154.9 771.249 144.034C771.088 133.18 788.348 133.18 788.185 144.034Z" fill="#E2F0C2"/>
<path d="M503.688 221.66C475.353 247.447 471.932 243.687 500.368 217.994C528.703 192.207 532.124 195.98 503.688 221.66Z" fill="#E2F0C2"/>
<path d="M708.214 210.473C664.144 244.633 661.016 240.593 705.189 206.567C749.26 172.407 752.388 176.433 708.214 210.473Z" fill="#E2F0C2"/>
<path d="M435.004 270.02C426.562 279.674 434.58 296.234 447.332 295.727C456.542 298.567 499.628 250.367 506.554 245.967C484.866 259.38 460.626 268.007 435.004 270.02Z" fill="#86BF02"/>
<path d="M786.255 182.647C782.927 184.594 779.527 186.234 776.111 187.754L781.734 194.514C786.105 199.86 793.938 199.247 796.037 193.354L805.654 166.487C800.185 172.62 793.899 178.074 786.255 182.647Z" fill="#86BF02"/>
<path d="M597.709 275.434L615.986 294.62C621.622 298.207 628.91 297.874 634.186 293.767L688.333 251.647C656.206 263.007 635.097 289.3 597.709 275.434Z" fill="#86BF02"/>
<path d="M619.447 290.3C629.288 305.167 769.128 167.874 778.112 181.594C780.019 183.06 787.999 196.754 790.874 191.514C813.568 122.46 826.86 131.82 752.216 145.167C746.307 149.06 760.667 156.314 759.106 161.38C758.947 162.86 758.195 164.207 757.022 165.127L626.944 266.3C622.718 277.34 546.366 185.767 543.003 185.767C539.096 183.567 534.198 184.14 530.898 187.247L440.26 272.394C430.487 281.394 444.694 296.78 454.398 287.433C454.396 287.433 536.078 210.714 536.078 210.714C538.274 208.647 541.723 208.74 543.802 210.927L619.447 290.3ZM624.475 302.567C614.284 309.02 546.635 226.793 539.618 222.433L461.906 295.433C453.732 303.447 439.479 302.967 431.81 294.487C423.772 285.94 424.194 272.434 432.751 264.394L523.388 179.247C530.699 172.354 542.436 171.367 550.422 177.647L624.116 254.607L745.812 159.954C737.098 152.58 737.768 136.754 750.166 134.394C750.164 134.394 802.603 124.407 802.603 124.407C813.044 122.047 823.428 134.234 819.462 144.18L801.202 195.207C794.982 209.447 779.62 203.687 773.079 192.687C769.962 193.487 625.027 312.687 624.475 302.567Z" fill="#2E0F07"/>
<path fill-rule="evenodd" clip-rule="evenodd" d="M513.941 459.098H513.053V457.094H513.941V459.098Z" fill="#AF862E"/>
<path fill-rule="evenodd" clip-rule="evenodd" d="M507.041 431.195H534.943L534.637 430.716H507.088L507.041 431.195Z" fill="#AF862E"/>
<path fill-rule="evenodd" clip-rule="evenodd" d="M534.339 448.27H521.955V447.107H534.339V448.27Z" fill="#AF862E"/>
<path fill-rule="evenodd" clip-rule="evenodd" d="M525.592 459.255H512.014L512.304 458.846H525.521L525.592 459.255Z" fill="#AF862E"/>
<path fill-rule="evenodd" clip-rule="evenodd" d="M541.175 459.255H527.039L527.353 458.846H541.175V459.255Z" fill="#AF862E"/>
<path fill-rule="evenodd" clip-rule="evenodd" d="M525.519 448.286C525.519 448.286 525.315 452.6 523.193 453.04H528.065C528.065 453.04 526.242 452.372 525.833 448.286H525.519Z" fill="#AF862E"/>
<path fill-rule="evenodd" clip-rule="evenodd" d="M531.319 448.246C531.319 448.246 530.997 451.397 529.669 452.199H529.464C528.137 451.397 527.822 448.246 527.822 448.246H531.319Z" fill="#AF862E"/>
<path fill-rule="evenodd" clip-rule="evenodd" d="M523.628 448.246C523.628 448.246 523.305 451.397 521.978 452.199H521.781C520.194 451.79 521.789 448.333 521.695 448.246H523.628Z" fill="#AF862E"/>
<path fill-rule="evenodd" clip-rule="evenodd" d="M514.337 462.861C512.765 463.576 513.975 465.163 515.46 466.389H534.216V465.03C532.519 464.275 512.97 467.041 514.337 462.861Z" fill="#AF862E"/>
<path fill-rule="evenodd" clip-rule="evenodd" d="M511.299 554.708L515.463 466.389L517.734 466.311L512.03 554.59L511.299 554.708Z" fill="#AF862E"/>
<path fill-rule="evenodd" clip-rule="evenodd" d="M553.523 459.098H554.403V457.094H553.523V459.098Z" fill="#AF862E"/>
<path fill-rule="evenodd" clip-rule="evenodd" d="M560.416 431.195H534.203L534.51 430.716H560.377L560.416 431.195Z" fill="#AF862E"/>
<path fill-rule="evenodd" clip-rule="evenodd" d="M533.117 448.27H545.509V447.107H533.117V448.27Z" fill="#AF862E"/>
<path fill-rule="evenodd" clip-rule="evenodd" d="M542.783 459.255H555.45L555.175 458.846H542.783V459.255Z" fill="#AF862E"/>
<path fill-rule="evenodd" clip-rule="evenodd" d="M541.941 448.286C541.941 448.286 542.137 452.6 544.267 453.04H539.277C539.277 453.04 541.218 452.372 541.619 448.286H541.941Z" fill="#AF862E"/>
<path fill-rule="evenodd" clip-rule="evenodd" d="M533.549 448.317C533.549 448.317 533.384 452.097 531.074 453.283H536.331C536.331 453.283 534.123 452.372 533.722 448.286L533.549 448.317Z" fill="#AF862E"/>
<path fill-rule="evenodd" clip-rule="evenodd" d="M535.988 448.246C535.988 448.246 536.303 451.397 537.631 452.199H537.835C539.163 451.397 539.477 448.246 539.477 448.246H535.988Z" fill="#AF862E"/>
<path fill-rule="evenodd" clip-rule="evenodd" d="M543.914 448.246C543.914 448.246 544.236 451.397 545.556 452.199H545.761C547.34 451.79 545.753 448.333 545.847 448.246H543.914Z" fill="#AF862E"/>
<path fill-rule="evenodd" clip-rule="evenodd" d="M556.164 554.708L552 466.389L550.004 466.311L555.08 554.181L556.164 554.708Z" fill="#AF862E"/>
<path fill-rule="evenodd" clip-rule="evenodd" d="M514.136 434.283C514.136 434.283 524.995 436.766 521.553 448.27C522.496 447.908 521.035 435.352 512.572 434.645L514.136 434.283Z" fill="#AF862E"/>
<path fill-rule="evenodd" clip-rule="evenodd" d="M553.25 434.283C553.25 434.283 542.391 436.766 545.832 448.27C545.832 448.27 542.783 438.731 554.334 434.401L553.25 434.283Z" fill="#AF862E"/>
<path fill-rule="evenodd" clip-rule="evenodd" d="M527.145 456.371C527.349 455.515 527.986 454.909 528.779 454.642H517.944C516.341 456.01 513.473 457.133 513.473 457.133V459.098L525.558 459.082C525.605 458.548 524.387 458.587 524.41 458.595C519.696 458.783 523.098 455.2 525.408 458.021V457.07C524.905 456.622 524.19 456.457 524.19 456.457C519.217 455.852 524.198 452.89 525.408 456.285C524.992 454.336 527.64 454.462 527.145 456.371Z" fill="#AF862E"/>
<path fill-rule="evenodd" clip-rule="evenodd" d="M549.589 454.642H545.801C547.679 456.316 543.821 455.884 542.831 457V458.123C545.636 455.114 549.054 458.799 542.831 458.768C542.816 458.878 542.957 459.05 542.871 459.137L554.06 459.098V457.133C554.06 457.133 551.192 456.01 549.589 454.642Z" fill="#AF862E"/>
<path fill-rule="evenodd" clip-rule="evenodd" d="M542.831 456.371C543.035 455.515 543.663 454.909 544.457 454.642C541.511 454.642 532.93 454.642 530.125 454.642C531.995 456.316 528.137 455.884 527.147 457V458.123C529.96 455.114 533.362 458.799 527.147 458.768C527.139 458.878 527.147 459.192 527.068 459.278L533.771 459.168L534.234 459.223L534.242 459.05L541.149 459.027C541.055 458.933 541.094 458.862 541.094 458.744C535.224 458.885 538.077 455.169 541.094 458.021V457.07C540.591 456.622 539.876 456.457 539.876 456.457C534.902 455.845 539.884 452.89 541.094 456.285C540.67 454.336 543.318 454.462 542.831 456.371Z" fill="#AF862E"/>
<path fill-rule="evenodd" clip-rule="evenodd" d="M540.379 444.585C538.14 444.451 538.297 443.217 539.554 442.864C542.555 441.677 546.421 438.236 546.421 438.236C543.703 442.165 543.31 444.176 540.379 444.585ZM534.682 439.462C534.399 437.961 536.757 437.073 537.519 437.929C535.939 438.432 536.961 439.155 536.961 439.155C538.1 440.082 544.41 436.106 544.41 436.106C548.779 433.458 551.929 434.276 551.929 434.276C544.669 435.226 537.888 447.02 534.682 439.462ZM541.149 434.786C542.72 437.709 537.723 436.138 536.427 436.656C536.427 436.656 538.98 433.01 541.149 434.786ZM532.765 439.462C529.543 447.02 522.794 435.226 515.518 434.276C515.518 434.276 518.669 433.458 523.037 436.106C523.037 436.106 529.347 440.082 530.486 439.155C530.486 439.155 531.508 438.432 529.928 437.929C530.691 437.073 533.048 437.961 532.765 439.462ZM527.068 444.585C524.137 444.176 523.744 442.165 521.026 438.236C521.026 438.236 525.08 441.842 528.113 442.95C529.158 443.327 529.182 444.475 527.068 444.585ZM525.937 435.486C527.053 432.288 531.241 436.484 531.021 436.656C529.598 435.981 526.345 437.772 525.937 435.486ZM559.064 430.417L557.579 431.203C575.62 430.472 575.086 457.117 558.718 457.33C549.36 458.312 541.157 447.052 548.857 437.371C545.769 441.072 545.51 442.51 545.321 444.192L545.313 444.129H545.258C545.526 440.255 548.15 437.599 550.759 435.894C548.834 437.332 548.016 438.778 548.016 438.778C561.987 425.64 574.088 444.923 562.765 451.829C546.626 457.235 549.116 435.965 559.323 439.186C566.93 441.583 561.901 449.024 559.756 449.111C552.134 450.383 554.797 442.235 556.919 442.377C561.162 441.174 560.981 448.647 556.683 446.274C561.626 450.533 562.969 440.727 557.948 441.072C553.202 440.452 551.984 447.681 555.568 449.645C568.422 453.479 566.411 434.826 555.866 437.639C542.461 442.369 552.157 457.887 561.249 454.352C572.634 451.012 570.332 436.114 562.081 433.773C556.628 432.123 541.558 433.301 536.159 432.963C538.006 434.118 534.014 436.939 533.731 438.652C533.394 436.963 529.425 434.126 531.264 432.963C525.748 433.325 511.157 432.13 505.601 433.773C497.351 436.114 495.041 451.012 506.442 454.352C515.541 457.88 525.214 442.361 511.817 437.639C501.264 434.826 499.26 453.479 512.115 449.653C515.698 447.681 514.48 440.452 509.727 441.072C504.714 440.734 506.057 450.533 510.992 446.274C506.701 448.647 506.521 441.174 510.764 442.377C512.878 442.235 515.549 450.383 507.919 449.111C505.79 449.016 500.761 441.583 508.359 439.186C518.566 435.973 521.049 457.235 504.918 451.829C493.587 444.907 505.704 425.648 519.666 438.778C519.666 438.778 519.171 437.89 518.04 436.821C527.131 445.653 518.582 458.602 508.964 457.33C492.597 457.11 492.055 430.472 510.096 431.203C501.453 428.296 494.397 437.749 495.041 444.867C494.962 461.243 521.631 464.378 522.409 445.724H532.521C530.376 444.812 531.327 443.233 532.144 443.013C533.15 442.463 533.669 440.004 533.669 440.004C533.669 440.004 534.14 442.463 535.146 443.013C535.971 443.233 536.914 444.812 534.769 445.724H545.274C545.4 454.619 552.668 458.838 559.111 458.634C576.241 458.233 577.584 430.802 559.064 430.417Z" fill="#AF862E"/>
<path fill-rule="evenodd" clip-rule="evenodd" d="M521.411 472.4C521.843 469.768 523.478 469.383 525.104 470.286C524.68 467.418 520.154 467.583 520.327 470.711L517.428 552.853C517.428 553.938 517.317 555.619 517.435 555.501C519.321 556.099 520.751 472.793 521.411 472.4Z" fill="#AF862E"/>
<path fill-rule="evenodd" clip-rule="evenodd" d="M527.281 555.321C527.234 555.109 529.009 472.487 529.009 472.487C529.002 470.609 531.217 469.242 532.695 470.373C523.069 453.361 527.658 545.028 526.33 554.158L527.281 555.321Z" fill="#AF862E"/>
<path fill-rule="evenodd" clip-rule="evenodd" d="M537.863 555.117C539.772 553.985 532.826 463.914 540.723 470.287C530.39 451.735 538.602 557.026 536.59 554.606L537.863 555.117Z" fill="#AF862E"/>
<path fill-rule="evenodd" clip-rule="evenodd" d="M548.952 555.8C550.775 554.519 540.671 462.547 548.897 470.286C538.25 452.073 550.217 558.126 548.143 555.659L548.952 555.8Z" fill="#AF862E"/>
<path fill-rule="evenodd" clip-rule="evenodd" d="M561.931 427.353C547.772 427.353 519.775 427.353 505.577 427.353V423.99C519.759 423.99 547.803 423.99 561.931 423.99V427.353ZM563.227 423.016V423C548.455 423 519.052 423 504.233 423V423.016H504.178V427.353H504.154L504.178 427.369V427.385H504.194L506.472 429.247C506.119 429.702 505.812 430.535 507.604 431.038C507.604 431.038 507.502 430.897 507.423 430.693C507.973 431.698 559.039 430.724 559.856 431.03V431.038C561.216 430.748 561.396 429.867 560.76 429.427L563.267 427.385H563.329V423.016H563.227Z" fill="#AF862E"/>
<path fill-rule="evenodd" clip-rule="evenodd" d="M556.487 459.711C555.693 458.61 554.609 458.893 554.609 458.893C554.279 458.736 554.326 459.176 554.326 459.176C560.659 463.144 534.376 460.944 534.156 461.463C533.849 460.913 506.741 463.199 513.137 459.176C513.137 459.176 513.184 458.736 512.854 458.893C510.512 458.273 509.035 463.191 514.347 463.019C510.214 467.379 533.394 464.527 533.967 465.289V466.389H552C553.006 465.588 554.758 463.639 553.352 463.019C557.233 463.254 556.88 459.789 556.487 459.711Z" fill="#AF862E"/>
<path fill-rule="evenodd" clip-rule="evenodd" d="M548.135 459.255H520.523V454.642H548.135V459.255Z" fill="#AF862E"/>
<path fill-rule="evenodd" clip-rule="evenodd" d="M578.684 534.302V509.189C575.18 509.009 573.639 509.284 573.702 513.126H570.434L570.646 505.095H593.37L593.582 513.126H590.227C590.69 509.598 588.93 508.906 585.331 509.189V534.302H578.684Z" fill="#AF862E"/>
<path fill-rule="evenodd" clip-rule="evenodd" d="M606.924 517.73C615.85 517.825 612.133 507.06 605.91 509.417C605.682 509.849 605.785 516.701 605.761 517.73H606.924ZM613.595 534.302L606.484 521.824H605.761V534.302H599.121C599.011 532.597 599.396 509.786 598.886 508.836C599.019 508.741 596.473 508.152 595.318 508.026V505.095H606.287C620.376 504.616 622.883 516.662 613.163 520.748L620.722 534.302H613.595Z" fill="#AF862E"/>
<path fill-rule="evenodd" clip-rule="evenodd" d="M634.049 534.75C619.34 535.874 624.322 518.061 623.08 509.252C623.261 509.182 620.511 508.624 619.285 508.522V504.695L629.948 504.64C631.016 509.488 626.624 531.835 634.552 530.656C639.581 530.177 639.33 528.739 639.597 523.105V504.64H644.696C643.416 514.022 649.851 535.866 634.049 534.75Z" fill="#AF862E"/>
<path fill-rule="evenodd" clip-rule="evenodd" d="M655.907 534.75C653.982 534.781 650.721 534.215 647.767 533.453V527.395C660.92 536.07 665.879 525.061 651.334 519.703C640.035 509.763 654.477 501.402 665.061 505.559V511.224C651.625 504.215 650.658 514.155 663.128 518.634C671.465 524.504 665.533 535.913 655.907 534.75Z" fill="#AF862E"/>
<path fill-rule="evenodd" clip-rule="evenodd" d="M677.641 534.302V509.189C674.137 509.009 672.597 509.276 672.652 513.126H669.383L669.603 505.095H692.327L692.539 513.126H689.184C689.647 509.59 687.879 508.906 684.281 509.189V534.302H677.641Z" fill="#AF862E"/>
<mask id="mask0_1537_3224" style="mask-type:alpha" maskUnits="userSpaceOnUse" x="570" y="542" width="170" height="15">
<path d="M570.432 542.184H739.982V556.327H570.432V542.184Z" fill="black"/>
</mask>
<g mask="url(#mask0_1537_3224)">
<path fill-rule="evenodd" clip-rule="evenodd" d="M738.939 553.451C737.548 553.483 737.548 551.314 738.939 551.346C740.337 551.314 740.329 553.483 738.939 553.451ZM736.715 552.736V553.326C732.189 554.764 733.407 549.523 733.273 546.953H732.11V546.356H733.273V545.177L734.766 543.849V546.356H736.715V546.953H734.766C735.128 548.485 733.533 553.742 736.715 552.736ZM730.672 546.442V547.558C726.429 545.295 727.969 549.161 730.272 549.727C732.912 552.288 729.022 554.308 726.524 553.176V552.021C728.087 553.609 731.325 552.398 728.928 550.662C724.897 549.295 726.657 544.934 730.672 546.442ZM723.098 553.286V551.597H723.066C721.982 554.685 718.21 553.609 718.76 550.411C718.588 549.373 719.389 546.788 717.613 546.969V546.67L720.253 546.191V550.678C720.253 553.829 723.396 552.116 723.066 549.931C722.948 548.925 723.569 546.827 721.951 546.969V546.67L724.591 546.191V553.286H723.098ZM713.142 553.286C712.749 552.163 714.187 546.67 711.964 546.969V546.67L714.627 546.191V548.155H714.659C715.185 546.435 715.995 545.979 717.33 546.262V547.684C713.849 546.45 714.722 551.393 714.627 553.286H713.142ZM707.226 553.286V543.952C705.976 543.936 704.57 543.779 704.585 545.413H704.169L704.224 543.252H711.861L711.916 545.413H711.5C711.626 543.779 710.062 543.936 708.86 543.952V553.286H707.226ZM692.54 553.286C692.045 552.147 693.766 543.166 691.377 543.519V543.221L694.033 542.852V548.116H694.064C698.189 542.302 698.81 550.128 698.37 553.286H696.877C697.914 544.808 693.349 545.421 694.033 553.286H692.54ZM691.173 552.736V553.326C686.639 554.764 687.857 549.523 687.723 546.953H686.56V546.356H687.723V545.177L689.216 543.849V546.356H691.173V546.953H689.216C689.577 548.485 687.99 553.742 691.173 552.736ZM684.227 545.012C683.024 545.028 683.024 543.119 684.242 543.15C685.492 543.127 685.468 545.044 684.227 545.012ZM683.464 553.286C683.087 552.178 684.502 546.694 682.317 546.969V546.67L684.957 546.191V553.286H683.464ZM671.827 553.286C670.971 551.809 670.829 543.354 668.252 543.582V543.252H670.947L672.912 551.377H672.943L675.3 543.252H676.33L679.009 551.377H679.033L680.675 543.252H681.649L679.543 553.286H678.129L675.544 545.335H675.505L673.21 553.286H671.827ZM662.453 553.451C661.062 553.483 661.062 551.314 662.453 551.346C663.844 551.306 663.844 553.483 662.453 553.451ZM653.849 556.327C653.362 555.204 655.067 546.576 652.686 546.969V546.67L655.342 546.191V547.401H655.374C661.447 541.579 661.07 558.119 655.374 552.359H655.342V556.327H653.849ZM655.342 549.672C655.232 551.11 655.609 552.776 656.835 552.642C660.622 551.974 656.191 542.184 655.342 549.672ZM650.518 545.012C649.315 545.028 649.315 543.119 650.533 543.15C651.783 543.127 651.751 545.044 650.518 545.012ZM649.755 553.286C649.37 552.178 650.793 546.694 648.608 546.969V546.67L651.248 546.191V553.286H649.755ZM641.419 553.286C640.924 552.147 642.652 543.166 640.256 543.519V543.221L642.912 542.852V548.116H642.943C647.068 542.302 647.689 550.128 647.249 553.286H645.756C646.793 544.808 642.236 545.421 642.912 553.286H641.419ZM639.25 546.442V547.558C635.007 545.295 636.547 549.161 638.849 549.727C641.489 552.288 637.6 554.308 635.109 553.176V552.021C636.665 553.609 639.902 552.398 637.506 550.662C633.475 549.295 635.235 544.934 639.25 546.442ZM630.002 553.286C629.617 552.163 631.055 546.67 628.831 546.969V546.67L631.495 546.191V548.155H631.526C632.045 546.435 632.862 545.979 634.19 546.262V547.684C630.717 546.45 631.589 551.393 631.495 553.286H630.002ZM624.077 548.438H626.835C627.016 545.924 623.943 546.38 624.077 548.438ZM628.187 552.391V553.043C617.005 555.856 624.941 539.229 628.32 549.035H624.077C623.896 551.456 625.892 553.436 628.187 552.391ZM614.907 553.286C614.514 552.163 615.968 546.662 613.713 546.969V546.67L616.4 546.191V548.1H616.432C620.69 542.357 621.107 550.096 620.722 553.286H619.229C620.227 544.682 615.748 545.539 616.4 553.286H614.907ZM613.296 552.736V553.326C608.771 554.764 609.988 549.523 609.855 546.953H608.692V546.356H609.855V545.177L611.348 543.849V546.356H613.296V546.953H611.348C611.709 548.485 610.114 553.742 613.296 552.736ZM604.04 553.286C603.655 552.163 605.093 546.67 602.862 546.969V546.67L605.533 546.191V548.155H605.565C606.083 546.435 606.9 545.979 608.228 546.262V547.684C604.747 546.45 605.62 551.393 605.533 553.286H604.04ZM600.277 550.843V549.978C595.515 549.884 599.687 555.306 600.277 550.843ZM600.277 553.286V552.406C596.654 556.068 594.006 548.855 600.277 549.436C600.866 547.33 598.689 545.06 598.289 548.218H596.521C596.536 546.144 600.167 545.531 601.337 546.922C602.107 547.818 601.644 552.092 601.762 553.286H600.277ZM589.245 553.286C588.734 551.809 590.596 543.189 587.807 543.582V543.252C589.339 543.417 593.535 542.749 594.674 543.975C597 546.788 594.281 549.483 590.879 548.831V553.286H589.245ZM590.879 544.847V548.124C596.285 548.918 593.087 541.131 590.879 544.847ZM576.232 553.286C575.84 552.163 577.285 546.662 575.038 546.969V546.67L577.718 546.191V548.1H577.749C582.008 542.357 582.432 550.096 582.039 553.286H580.554C581.552 544.682 577.073 545.539 577.718 553.286H576.232ZM571.927 553.286C571.408 551.872 573.309 543.213 570.434 543.763V543.433L573.561 543.087V553.286H571.927Z" fill="#AF862E"/>
</g>
</svg>
