<svg width="26" height="21" viewBox="0 0 26 21" fill="none" xmlns="http://www.w3.org/2000/svg">
<path d="M12.8709 13.6655C15.0562 13.6655 16.8278 11.8939 16.8278 9.70861C16.8278 7.5233 15.0562 5.75175 12.8709 5.75175C10.6856 5.75175 8.91406 7.5233 8.91406 9.70861C8.91406 11.8939 10.6856 13.6655 12.8709 13.6655Z" stroke="#828282" stroke-width="2" stroke-linecap="round" stroke-linejoin="round"/>
<path d="M6.52148 17.56C7.1169 16.3872 8.02545 15.4022 9.14641 14.7142C10.2674 14.0261 11.557 13.6619 12.8722 13.6619C14.1875 13.6619 15.4771 14.0261 16.5981 14.7142C17.719 15.4022 18.6276 16.3872 19.223 17.56" stroke="#828282" stroke-width="2" stroke-linecap="round" stroke-linejoin="round"/>
<path d="M19.9922 10.5L22.3663 12.8741L24.7404 10.5" stroke="#828282" stroke-width="2" stroke-linecap="round" stroke-linejoin="round"/>
<path d="M1 10.5L3.37412 8.12589L5.74823 10.5" stroke="#828282" stroke-width="2" stroke-linecap="round" stroke-linejoin="round"/>
<path d="M3.375 8.12589V10.5C3.37425 12.5106 4.01166 14.4695 5.19541 16.0947C6.37917 17.7199 8.04819 18.9274 9.96209 19.5434C11.876 20.1593 13.936 20.152 15.8455 19.5223C17.7549 18.8926 19.4152 17.6732 20.5873 16.0396" stroke="#828282" stroke-width="2" stroke-linecap="round" stroke-linejoin="round"/>
<path d="M22.3666 12.8741V10.5C22.3674 8.48941 21.73 6.53047 20.5462 4.9053C19.3625 3.28013 17.6934 2.07261 15.7795 1.45664C13.8656 0.840671 11.8056 0.848044 9.89617 1.4777C7.98672 2.10735 6.32639 3.32679 5.1543 4.96039" stroke="#828282" stroke-width="2" stroke-linecap="round" stroke-linejoin="round"/>
</svg>
